<?xml version="1.0" encoding="UTF-8" standalone="no"?>
<svg
   xmlns:dc="http://purl.org/dc/elements/1.1/"
   xmlns:cc="http://creativecommons.org/ns#"
   xmlns:rdf="http://www.w3.org/1999/02/22-rdf-syntax-ns#"
   xmlns:svg="http://www.w3.org/2000/svg"
   xmlns="http://www.w3.org/2000/svg"
   xmlns:sodipodi="http://sodipodi.sourceforge.net/DTD/sodipodi-0.dtd"
   xmlns:inkscape="http://www.inkscape.org/namespaces/inkscape"
   version="1.1"
   id="svg1007"
   width="640"
   height="480"
   viewBox="0 0 640 480"
   sodipodi:docname="logo_concepts_2020-10-19 by Irina.svg"
   inkscape:version="1.0.1 (3bc2e813f5, 2020-09-07)">
  <metadata
     id="metadata1013">
    <rdf:RDF>
      <cc:Work
         rdf:about="">
        <dc:format>image/svg+xml</dc:format>
        <dc:type
           rdf:resource="http://purl.org/dc/dcmitype/StillImage" />
        <dc:title></dc:title>
      </cc:Work>
    </rdf:RDF>
  </metadata>
  <defs
     id="defs1011" />
  <sodipodi:namedview
     pagecolor="#ffffff"
     bordercolor="#666666"
     borderopacity="1"
     objecttolerance="10"
     gridtolerance="10"
     guidetolerance="10"
     inkscape:pageopacity="0"
     inkscape:pageshadow="2"
     inkscape:window-width="1868"
     inkscape:window-height="1025"
     id="namedview1009"
     showgrid="false"
     inkscape:zoom="1.8291667"
     inkscape:cx="320"
     inkscape:cy="196.26424"
     inkscape:window-x="0"
     inkscape:window-y="27"
     inkscape:window-maximized="1"
     inkscape:current-layer="g1015" />
  <g
     inkscape:groupmode="layer"
     inkscape:label="Image"
     id="g1015">
    <path
       style="fill:#000000;stroke-width:0.5"
       d="m 300.75,373.50525 c -12.07715,-1.7207 -16.64495,-2.64121 -20,-4.03042 -0.825,-0.34161 -1.8375,-0.664 -2.25,-0.71645 -1.41569,-0.17996 -3,-0.87532 -3,-1.3167 0,-0.24292 -0.33981,-0.44168 -0.75513,-0.44168 -0.41532,0 -1.82157,-0.74093 -3.125,-1.64651 -1.30343,-0.90557 -4.16987,-2.69761 -6.36987,-3.9823 -2.2,-1.2847 -5.05514,-3.18752 -6.34476,-4.2285 -1.28961,-1.04098 -3.28149,-2.56769 -4.42638,-3.39269 -2.03252,-1.46461 -6.9712,-6.7423 -10.52736,-11.25 C 241.39359,339.25767 236,330.93031 236,330.22341 c 0,-0.33053 -0.33503,-0.87901 -0.7445,-1.21884 -0.40947,-0.33984 -0.63754,-0.79094 -0.50681,-1.00246 0.13073,-0.21152 -0.17833,-0.91727 -0.68678,-1.56834 -1.13182,-1.4493 -3.55598,-6.51876 -3.57781,-7.48202 -0.009,-0.38596 -0.34625,-1.13851 -0.75,-1.67232 -0.40375,-0.53381 -0.73701,-1.43381 -0.74055,-2 -0.004,-0.56619 -0.46519,-2.49193 -1.02587,-4.27943 -2.13526,-6.80737 -2.95858,-11.89241 -3.25519,-20.10472 -0.34382,-9.51932 0.2567,-14.65973 3.05474,-26.14812 1.9382,-7.95799 3.7045,-12.23909 7.96639,-19.30861 3.53895,-5.87033 5.48248,-8.24889 12.02714,-14.71932 5.11952,-5.06146 15.17489,-13.21923 16.29418,-13.21923 0.25657,0 1.30542,-0.54552 2.33078,-1.21227 1.02535,-0.66674 4.11428,-2.14855 6.86428,-3.29289 2.75,-1.14434 6.0125,-2.54124 7.25,-3.1042 4.73264,-2.15299 12.19132,-3.6457 24,-4.80313 4.31795,-0.42323 12.23156,0.56606 19.5,2.43772 0.9625,0.24785 3.2125,0.79004 5,1.20487 1.7875,0.41483 4.375,1.0823 5.75,1.48326 1.375,0.40097 3.41956,0.96503 4.54347,1.25348 1.12392,0.28845 2.56459,0.97641 3.20151,1.52881 0.63691,0.55239 1.38283,1.00435 1.6576,1.00435 0.27476,0 1.42158,0.68269 2.54849,1.51709 6.36994,4.71647 8.85804,6.50926 11.64418,8.39017 6.22415,4.2019 15.22038,16.35368 20.98277,28.34274 0.79305,1.65 2.05997,4.03874 2.81538,5.30832 0.75541,1.26957 1.44818,3.18961 1.53951,4.26674 0.0913,1.07714 0.43294,2.45715 0.75916,3.06669 0.5972,1.11588 0.67822,1.13191 6.68293,1.32254 0.61875,0.0197 1.2375,0.17188 1.375,0.33831 0.38781,0.4694 7.85491,1.56436 11.75,1.72301 1.925,0.0784 4.9625,0.51478 6.75,0.96973 1.7875,0.45496 4.2625,1.04899 5.5,1.32008 1.2375,0.2711 2.7,0.68388 3.25,0.91731 0.55,0.23343 3.3625,0.88876 6.25,1.4563 2.8875,0.56753 8.7375,1.74153 13,2.60888 4.2625,0.86735 8.5375,1.65716 9.5,1.75514 0.9625,0.098 2.425,0.29006 3.25,0.42684 0.825,0.13679 2.69243,0.0102 4.14984,-0.2812 1.61028,-0.32201 2.88529,-0.35094 3.25,-0.0737 0.72284,0.54941 7.24803,2.85734 10.26113,3.62931 1.18853,0.3045 3.32603,0.63107 4.75,0.72571 1.42397,0.0946 4.71597,0.65601 7.31555,1.24751 2.59959,0.5915 7.02687,1.39836 9.83842,1.79303 2.81154,0.39467 5.63461,0.9441 6.27348,1.22097 1.05471,0.45708 11.66328,2.40999 19.16158,3.52742 1.65,0.24589 5.2623,0.90185 8.0273,1.45768 2.76505,0.55583 7.24635,1.2407 9.95845,1.52194 2.7121,0.28123 5.7373,0.72061 6.7227,0.9764 4.83305,1.25462 7.9838,1.97948 9.91395,2.28078 2.4284,0.37908 2.9402,0.8624 1.8614,1.75775 -0.5226,0.43371 -1.67595,0.53052 -3.7445,0.31432 -3.17955,-0.33233 -3.30885,-0.22596 -2.44935,2.01467 1.01785,2.65342 0.66345,7.63362 -0.77955,10.95521 -1.2006,2.76359 -1.68225,3.28196 -5.1672,5.56153 -2.11375,1.38263 -4.23695,2.64787 -4.7182,2.81165 -1.18265,0.40246 -1.1477,3.15005 0.125,9.82916 0.55,2.88641 1,6.02242 1,6.96891 0,0.9465 0.21185,2.97194 0.4708,4.50099 0.25895,1.52906 0.811,5.1426 1.22675,8.0301 2.0265,14.07499 1.6364,12.98742 5.2455,14.62386 4.50485,2.04259 5.78205,2.9274 4.9618,3.43734 -0.7549,0.46929 -4.37805,0.0197 -5.2297,-0.64906 -0.31615,-0.24824 -1.66615,-0.85049 -3,-1.33833 -1.33385,-0.48785 -3.88765,-1.59116 -5.67515,-2.45181 -4.9204,-2.36907 -10.74525,-4.60253 -12.5061,-4.7953 -0.86515,-0.0947 -2.0078,-0.54446 -2.5392,-0.99946 -0.53135,-0.45498 -1.07545,-0.82724 -1.2091,-0.82724 -0.5958,0 -7.11795,-3.28831 -10.0246,-5.05415 -1.7616,-1.07022 -3.3339,-1.94585 -3.494,-1.94585 -0.1601,0 -1.4579,-0.53288 -2.88405,-1.18417 -1.4261,-0.65129 -3.83045,-1.6907 -5.34295,-2.30978 -1.5125,-0.6191 -3.459,-1.43622 -4.32556,-1.81583 -0.86656,-0.37963 -1.84438,-0.69022 -2.17293,-0.69022 -0.32854,0 -2.99454,-1.21776 -5.92443,-2.70614 -7.95342,-4.04032 -15.39722,-7.52895 -19.32708,-9.05791 -1.925,-0.74894 -4.9625,-2.02703 -6.75,-2.8402 -1.7875,-0.81317 -4.2625,-1.9369 -5.5,-2.49718 -1.2375,-0.56028 -3.0375,-1.44908 -4,-1.9751 -4.51847,-2.46945 -9.53031,-4.85879 -12.38563,-5.90472 -1.72459,-0.63174 -3.25662,-1.3444 -3.4045,-1.58369 C 433.56198,315.69578 432.89176,315.5 432.22049,315.5 431.54922,315.5 431,315.32979 431,315.12174 c 0,-0.20805 -0.94782,-0.67408 -2.10626,-1.03562 -1.15844,-0.36155 -3.23969,-1.18104 -4.625,-1.82108 C 416.68457,308.76097 414.83672,308 413.91208,308 c -0.55999,0 -1.46062,-0.5625 -2.00141,-1.25 -0.54079,-0.6875 -1.21515,-1.25 -1.49859,-1.25 -0.67453,0 -11.06779,-4.72717 -18.65885,-8.4866 -3.29822,-1.63342 -6.15677,-2.80986 -6.35232,-2.61431 -0.19556,0.19556 -0.71052,2.26702 -1.14435,4.60324 -0.43384,2.33622 -1.01925,5.48517 -1.30092,6.99767 -0.73949,3.97088 -3.88502,13.45592 -5.1359,15.4868 -0.58836,0.95525 -1.52623,2.75525 -2.08417,4 -4.07822,9.09849 -6.97047,13.20565 -16.48557,23.4105 -3.7933,4.06827 -3.27546,3.63978 -14.16073,11.71761 -1.0116,0.75069 -2.85177,1.84976 -4.08927,2.44237 -1.2375,0.59261 -4.99359,2.39628 -8.34686,4.00814 -14.6017,7.0188 -20.07917,8.12446 -31.90314,6.43983 z m 238.00105,-14.00699 c 0.17055,-0.27595 -0.027,-2.6947 -0.43855,-5.375 -0.4118,-2.68029 -1.0025,-7.23576 -1.31275,-10.12326 -0.31025,-2.8875 -1.09995,-7.6125 -1.7549,-10.5 -0.65495,-2.8875 -1.33745,-5.99993 -1.5167,-6.91652 -0.29785,-1.52341 -0.3807,-1.58781 -0.9649,-0.75 -0.35145,0.50409 -0.7978,2.15402 -0.9919,3.66652 -0.1941,1.5125 -0.78455,4.58075 -1.3121,6.81833 -0.5276,2.23759 -0.9627,4.93759 -0.9669,6 -0.005,1.06242 -0.22575,2.26917 -0.49235,2.68167 -0.2666,0.4125 -0.48815,0.5537 -0.49235,0.31378 -0.005,-0.23993 -0.3596,-0.14412 -0.7898,0.21289 -0.45055,0.37392 -0.675,1.08883 -0.5294,1.68623 0.139,0.5704 -0.0715,1.47385 -0.46785,2.00766 -0.39635,0.53381 -0.722,1.32131 -0.7237,1.75 0,0.42869 -0.3123,1.37213 -0.6903,2.09652 -0.37795,0.7244 -0.5453,1.53429 -0.3719,1.79976 0.38155,0.58407 8.60895,4.14474 10.7716,4.66176 2.23695,0.53476 2.69835,0.53017 3.04475,-0.0303 z m -19.26235,-7.68249 c -0.0475,-0.22508 0.4623,-1.00695 1.1328,-1.7375 0.67045,-0.73055 1.4668,-2.00327 1.76965,-2.82827 0.86775,-2.36395 3.54295,-15.54946 3.95635,-19.5 0.1151,-1.1 0.40455,-2.45 0.6432,-3 0.40075,-0.92345 0.7748,-2.49788 1.18795,-5 0.0908,-0.55 0.31755,-1.4735 0.50385,-2.05222 0.18625,-0.57872 0.53195,-2.49122 0.7682,-4.25 0.23625,-1.75878 0.88595,-5.44778 1.44385,-8.19778 2.12345,-10.46745 2.157,-10.3859 -4.7285,-11.49955 -2.51465,-0.40671 -5.0995,-0.91069 -5.74405,-1.11996 -0.6446,-0.20927 -1.9595,-0.38049 -2.922,-0.38049 -1.75,0 -1.75,0 -2.08835,9.75 -0.1861,5.3625 -0.3273,17.2875 -0.3138,26.5 0.0135,9.2125 -0.1218,17.7625 -0.3007,19 -0.3745,2.58976 -0.1822,2.94692 2.20285,4.09208 1.80105,0.86475 2.63975,0.94013 2.4887,0.22369 z M 512.73345,340.875 c 0.45155,-10.7949 0.20135,-19.16029 -0.5687,-19.01325 -0.3219,0.0615 -1.87585,-0.33229 -3.45325,-0.875 C 507.13405,320.44404 505.0942,320 504.17845,320 c -1.4495,0 -1.76785,0.24271 -2.45925,1.875 -1.48395,3.50329 -3.36257,9.86691 -3.5613,12.06359 -0.10889,1.20372 -0.49937,2.77872 -0.86773,3.5 -1.10404,2.16183 -1.41164,4.34527 -0.6874,4.87942 0.35597,0.26254 1.99723,1.01594 3.64723,1.67422 1.65,0.65828 4.8,2.04813 7,3.08856 2.2,1.04043 4.2573,1.89789 4.57175,1.90545 0.3926,0.009 0.67835,-2.5328 0.9117,-8.11124 z M 491.19581,338 c 0.45957,0 0.95744,-0.39375 1.10638,-0.875 0.14895,-0.48125 0.4601,-1.23482 0.69146,-1.67459 0.44902,-0.85355 2.91093,-8.16776 6.71514,-19.95041 1.28741,-3.9875 2.47171,-7.5875 2.63171,-8 0.16005,-0.4125 0.377,-1.425 0.4821,-2.25 0.1051,-0.825 0.66565,-2.5125 1.2457,-3.75 1.32315,-2.82302 2.4598,-6.55005 2.1503,-7.05081 -0.1292,-0.20905 -0.006,-0.52142 0.27325,-0.69415 0.73245,-0.45268 0.62485,-2.03573 -0.18395,-2.707 -0.91605,-0.76025 -8.39146,-2.05733 -10.086,-1.75005 -0.80561,0.14608 -1.55794,-0.0393 -1.90228,-0.46877 -0.31329,-0.39074 -1.5062,-0.84917 -2.65091,-1.01874 -1.14471,-0.16958 -2.42719,-0.44105 -2.84996,-0.60328 -0.95093,-0.36491 -2.01987,1.98948 -2.52032,5.55111 -0.19255,1.37043 -0.69478,3.71601 -1.11606,5.2124 -0.75898,2.69593 -1.17482,4.77773 -2.40287,12.02929 -0.72869,4.30288 -2.99823,15.93797 -3.9012,20 -0.33622,1.5125 -0.61514,3.03663 -0.61981,3.38696 -0.005,0.35032 2.46651,1.84181 5.49151,3.31442 4.53958,2.20992 5.59693,2.55708 6.05512,1.98804 C 490.11044,338.31024 490.73625,338 491.19581,338 Z m -15.92706,-10.53033 c 0.45936,-0.74328 7.09395,-32.8857 8.06712,-39.08263 0.33122,-2.10907 -0.23072,-2.51008 -4.39181,-3.13407 -2.20371,-0.33047 -2.21787,-0.32295 -2.8903,1.53663 -0.67575,1.86874 -0.67575,1.86874 -1.48976,-0.57717 -0.77917,-2.34124 -0.91029,-2.46153 -3.064,-2.81075 -1.2375,-0.20065 -2.925,-0.48455 -3.75,-0.63086 -1.5,-0.26603 -1.5,-0.26603 -1.50316,2.20973 -0.004,3.06006 -0.60179,3.79191 -2.42078,2.96313 -1.55354,-0.70784 -1.54967,-0.68417 -0.56661,-3.47047 0.89788,-2.54487 0.77455,-2.67838 -3.25115,-3.51963 -3.04621,-0.63657 -5.93397,-0.17323 -6.52185,1.04642 -0.19882,0.4125 -0.83961,1.68063 -1.42398,2.81808 -1.70143,3.31178 -1.13257,9.64469 1.01493,11.29884 5.10454,3.93187 6.34881,5.25724 7.72267,8.22604 1.90603,4.1188 1.4827,6.65026 -1.68264,10.06183 -0.34791,0.37497 -1.21836,1.4498 -1.93434,2.38849 -0.71598,0.9387 -1.709,1.70672 -2.20672,1.70672 -0.49772,0 -1.21276,0.30782 -1.58898,0.68404 -0.37622,0.37622 -1.17979,0.84138 -1.78571,1.03369 -0.60593,0.19231 -1.10168,0.65984 -1.10168,1.03896 0,0.66456 5.06759,3.29152 10.25,5.31342 1.375,0.53646 3.24782,1.32106 4.16181,1.74356 6.11793,2.82806 5.4639,2.73638 7.88143,1.10481 1.19934,-0.80943 2.31332,-1.6864 2.47551,-1.94881 z M 512.6954,319.625 c 0.34515,-1.14939 0.206,-23.22262 -0.1647,-26.125 -0.25195,-1.97252 -0.3551,-2.12667 -0.8366,-1.25 -0.72305,1.31655 -2.88385,7.84259 -3.6422,11 -0.33025,1.375 -1.0249,3.4 -1.5437,4.5 -1.1429,2.42334 -3.0082,7.95177 -3.0082,8.91586 0,0.41701 1.6585,1.31032 4.125,2.22182 4.999,1.84739 4.748,1.81089 5.0704,0.73732 z m -61.38716,-1.86273 c 2.91365,-0.58413 6.19176,-6.35404 6.19176,-10.89832 0,-3.48366 -1.8333,-6.43864 -5.60713,-9.03778 -6.05255,-4.16855 -7.16643,-11.01934 -2.5766,-15.84725 0.92605,-0.9741 1.68373,-2.00704 1.68373,-2.29544 0,-0.60262 -3.20927,-1.37475 -10,-2.40593 -2.6125,-0.39672 -5.44887,-0.86811 -6.30304,-1.04753 -1.92148,-0.40363 -1.87949,-0.50502 -2.92465,7.0617 -1.98672,14.38337 -2.35368,16.68636 -3.28598,20.62276 -0.54248,2.29046 -0.98633,4.70921 -0.98633,5.375 0,0.72065 -0.29156,1.21052 -0.72049,1.21052 -1.79487,0 -1.80318,-2.29181 -0.0389,-10.75 0.68833,-3.3 1.25329,-6.50047 1.25547,-7.11216 0.005,-1.33907 -1.91659,-2.45565 -4.66353,-2.71017 -1.91749,-0.17767 -1.91749,-0.17767 -2.0055,2.32732 -0.0578,1.64547 -0.45439,3.01952 -1.15581,4.00458 -1.3136,1.84478 -2.1719,4.91477 -2.36941,8.47492 -0.14964,2.69722 -0.14964,2.69722 2.89929,4.04636 1.67691,0.74203 4.84892,2.19282 7.04892,3.22398 2.2,1.03116 4.5625,2.03958 5.25,2.24094 0.6875,0.20136 2.90462,1.14256 4.92694,2.09156 2.02231,0.949 3.78661,1.61579 3.92065,1.48174 0.37893,-0.37892 -0.35835,-2.31907 -0.88128,-2.31907 -1.08911,0 -0.0753,-5.80473 1.14956,-6.58219 1.15084,-0.73046 1.24361,-0.45313 1.18863,3.55333 -0.0342,2.48737 0.16953,4.19661 0.54508,4.57458 0.65677,0.66099 3.9575,1.4162 5.15043,1.17843 0.4125,-0.0822 1.45121,-0.29007 2.30824,-0.46188 z m -29.1357,-26.03384 c -0.16284,-0.42436 -0.18436,-0.88328 -0.0478,-1.01983 0.13655,-0.13655 0.36828,0.21066 0.51496,0.77157 0.31157,1.19146 -0.0346,1.37544 -0.46715,0.24826 z m 115.24891,24.94652 c 4.02465,-0.97176 8.58275,-6.70915 8.57575,-10.7945 -0.007,-3.93028 -2.55325,-8.41988 -5.12295,-9.03193 -0.61835,-0.14729 -1.61035,-0.41942 -2.20445,-0.60476 -1.0146,-0.31649 -1.1009,-0.12907 -1.4209,3.08463 -0.18735,1.88189 -0.6583,4.69455 -1.0465,6.25036 -1.27375,5.10494 -2.2519,10.93664 -1.9235,11.46802 0.17725,0.28677 0.6579,0.39261 1.06815,0.23519 0.4102,-0.15742 1.3437,-0.43057 2.0744,-0.60701 z M 413.90258,302.58169 c 0.55962,-0.71321 0.57492,-0.67143 0.10741,0.29331 -0.44335,0.91487 -0.40181,1.125 0.22242,1.125 0.51673,0 0.76759,-0.48226 0.76759,-1.4756 0,-0.81159 0.3556,-2.78034 0.79023,-4.375 0.43462,-1.59467 0.77694,-4.41815 0.76071,-6.2744 -0.019,-2.16546 0.17019,-3.375 0.52774,-3.375 0.3728,0 0.45517,-0.74476 0.24885,-2.25 -0.23699,-1.72902 -0.14858,-2.25 0.38185,-2.25 0.45276,0 0.98345,-1.31796 1.54252,-3.83083 0.83357,-3.74674 0.82991,-3.86996 -0.1668,-5.61399 -1.32827,-2.32419 -1.9874,-2.48466 -2.63032,-0.64036 -0.72399,2.07684 -1.80923,2.38608 -2.19587,0.62572 -0.3558,-1.61995 -2.40571,-2.85735 -3.12689,-1.88752 -0.84938,1.14222 -1.91353,7.01722 -2.41491,13.33225 -0.18857,2.37512 -0.99511,7.25677 -1.65462,10.01473 -0.29592,1.2375 -0.54354,3.17764 -0.55027,4.31142 -0.012,2.03233 0.0283,2.07935 2.86278,3.33096 2.49484,1.10166 2.94112,1.17046 3.375,0.52027 0.275,-0.4121 0.79366,-1.12353 1.15258,-1.58096 z M 402.79094,296.25 c 0.33229,-1.65 0.85163,-4.8 1.15409,-7 0.30246,-2.2 1.00106,-7.12563 1.55245,-10.94584 0.55138,-3.82022 1.00252,-7.13897 1.00252,-7.375 0,-0.23604 -0.5625,-0.42916 -1.25,-0.42916 -0.77778,0 -1.25,0.28334 -1.25,0.75 0,0.4125 -0.225,0.75 -0.5,0.75 -0.275,0 -0.5,0.3375 -0.5,0.75 0,0.4125 -0.3375,0.75 -0.75,0.75 -0.52482,0 -0.75,-0.52916 -0.75,-1.76238 0,-1.37153 -0.24949,-1.85427 -1.125,-2.17677 -1.6382,-0.60343 -5.98632,-1.11658 -5.77727,-0.68181 0.0981,0.20403 0.59564,1.18899 1.10566,2.18879 1.37894,2.70322 0.76762,6.2195 -1.27817,7.35186 -3.249,1.79834 -3.19945,1.70928 -2.30407,4.14118 0.4433,1.20402 1.27745,3.95385 1.85367,6.11072 0.57623,2.15687 1.40655,4.61556 1.84517,5.46375 0.7373,1.4258 0.73328,1.58913 -0.0533,2.16432 -0.78318,0.57267 -0.75804,0.68001 0.31626,1.35015 2.5476,1.58915 3.22345,1.84031 4.63547,1.7226 1.37078,-0.11428 1.50856,-0.32184 2.07256,-3.12241 z m -9.31962,-2.46097 c -0.4919,-1.49103 -1.15017,-3.18894 -1.46282,-3.77314 -0.68231,-1.2749 -1.64849,-6.22064 -1.59037,-8.14089 0.0284,-0.93817 -0.20972,-1.375 -0.74948,-1.375 -0.64391,0 -0.67614,-0.13852 -0.17322,-0.74449 0.33983,-0.40947 0.80146,-0.63104 1.02583,-0.49237 0.70123,0.43338 3.88739,-1.45828 4.43197,-2.63132 0.70668,-1.52221 -0.0791,-5.48838 -1.26859,-6.40308 -2.45401,-1.88711 -3.83602,0.18318 -4.68702,7.02126 -0.69259,5.56519 -1.49684,9.80866 -2.35823,12.44274 -0.51068,1.56166 -0.6348,2.70065 -0.3441,3.15775 0.45113,0.70937 6.44229,3.60864 7.51254,3.63551 0.36768,0.009 0.25297,-0.91013 -0.33651,-2.69697 z M 383.43378,286.375 c 0.33762,-2.54375 1.0357,-6.425 1.55129,-8.625 0.5156,-2.2 1.07087,-5.4916 1.23393,-7.31466 0.3423,-3.82687 0.51113,-3.69143 -5.29822,-4.25021 -3.32921,-0.32022 -3.32921,-0.32022 -3.12752,3.62232 0.37148,7.26145 2.3216,19.88826 3.17405,20.55165 1.51214,1.17676 1.855,0.62293 2.46647,-3.9841 z M 429.46299,285 c 0.28544,-2.0625 0.77913,-4.93766 1.09707,-6.38926 0.31795,-1.45159 0.45692,-2.76042 0.30883,-2.90852 -0.35554,-0.35553 -6.06097,-1.6768 -6.2828,-1.45497 -0.0947,0.0947 -0.72967,2.3677 -1.41107,5.05115 -1.17958,4.64533 -1.23833,7.2016 -0.1655,7.2016 0.26977,0 0.49166,0.28125 0.49311,0.625 0.003,0.66683 4.51084,2.34111 5.09437,1.89204 0.19085,-0.14687 0.58054,-1.95454 0.86599,-4.01704 z m -51.18577,3.14064 c -0.18137,-0.47264 -0.68628,-3.2289 -1.12202,-6.125 -0.43574,-2.8961 -0.93017,-5.42287 -1.09873,-5.61505 -0.16856,-0.19217 -1.23631,-0.49795 -2.37278,-0.67952 -2.0663,-0.33011 -2.0663,-0.33011 -4.125,3.59869 -1.13227,2.16084 -2.05869,4.18266 -2.05869,4.49295 0,0.31028 1.06875,1.03352 2.375,1.60719 1.30625,0.57368 3.275,1.60686 4.375,2.29597 2.40297,1.50536 4.52789,1.72949 4.02722,0.42477 z M 335.75,285.73558 c 1.1,-0.39628 2.39375,-0.72391 2.875,-0.72805 0.48125,-0.004 0.875,-0.23253 0.875,-0.50753 0,-0.275 0.30916,-0.5 0.68702,-0.5 1.11364,0 4.97154,-2.3389 6.51471,-3.94962 2.89401,-3.0207 -0.41142,-4.55598 -4.81558,-2.2367 -1.44988,0.76352 -3.03221,1.71726 -3.51629,2.11941 -1.04021,0.86418 -2.94107,1.18999 -7.36986,1.26319 -2.75156,0.0455 -3.63342,-0.1715 -5.75,-1.41483 -5.00053,-2.93741 -8.81691,-7.83913 -8.97817,-11.53145 -0.012,-0.275 -0.30308,-0.79732 -0.64683,-1.16071 -0.34375,-0.36339 -0.60724,-1.48839 -0.58553,-2.5 0.0217,-1.01161 0.15296,-1.55804 0.29167,-1.21429 0.1387,0.34375 0.53889,0.625 0.8893,0.625 0.41286,0 0.75126,-1.0922 0.96144,-3.10311 0.17839,-1.70671 0.54794,-3.32671 0.82123,-3.6 0.27329,-0.27329 0.49689,-1.11361 0.49689,-1.86738 0,-0.75377 0.22242,-1.50796 0.49428,-1.67597 0.29358,-0.18145 0.36059,0.0429 0.16503,0.55251 -0.22339,0.58211 -0.14116,0.74175 0.25572,0.49646 C 319.73676,254.60367 320,254.11676 320,253.72049 320,253.32422 320.19353,253 320.43006,253 c 0.23654,0 1.26506,-0.7875 2.2856,-1.75 1.92662,-1.81704 2.78434,-2.17306 2.78434,-1.15572 0,0.32685 0.45623,0.10458 1.01384,-0.49395 1.2838,-1.37801 2.82212,-1.76222 5.84249,-1.45926 5.25432,0.52705 11.03494,3.94708 12.89367,7.62839 0.55,1.0893 1.3375,2.06422 1.75,2.1665 0.4125,0.10226 1.14375,0.29726 1.625,0.43331 1.3056,0.36909 1.065,-0.73547 -0.625,-2.86927 -0.825,-1.04164 -1.5,-2.12868 -1.5,-2.41564 0,-0.81252 -6.51063,-6.13648 -8.74627,-7.15211 -2.87182,-1.30465 -9.14353,-1.25868 -12.70009,0.0931 -2.74439,1.04308 -6.46073,3.35903 -8.34966,5.20335 -1.50194,1.46647 -3.90166,5.67865 -4.60287,8.07933 -1.24707,4.26954 -0.23646,12.97148 2.02564,17.44199 2.0288,4.00945 6.38334,7.57672 11.01627,9.02463 2.80001,0.87506 8.12403,0.85547 10.60698,-0.039 z m 28.84866,-4.11058 c 0.7129,-0.8277 8.02548,-15.26113 7.77113,-15.33854 -0.0659,-0.02 -0.69546,-0.54146 -1.39905,-1.15868 -0.70359,-0.61722 -2.39109,-1.33229 -3.75,-1.58905 -2.29602,-0.43383 -2.5676,-0.37472 -3.84052,0.83576 -1.5012,1.42757 -2.2657,1.28004 -1.43267,-0.27648 0.44257,-0.82695 0.34748,-1.03617 -0.58449,-1.28599 -1.90447,-0.51051 -4.38549,-0.3412 -4.58628,0.31298 -0.10551,0.34375 -0.3219,1.71388 -0.48088,3.04473 -0.27866,2.33286 -0.23531,2.44 1.20754,2.98461 0.8231,0.31069 1.49656,0.8475 1.49656,1.1929 0,0.46752 -0.32775,0.5034 -1.28255,0.14038 C 357.01205,270.21943 356.25637,270 356.03818,270 c -0.51702,0 -1.75227,7.22091 -1.39467,8.1528 0.47267,1.23176 2.79664,1.35169 3.61281,0.18644 0.39637,-0.5659 0.83326,-0.91632 0.97087,-0.77871 0.21939,0.21939 0.62842,1.9367 0.73566,3.08861 0.0331,0.35512 2.82472,1.7813 3.58465,1.83129 0.16364,0.0107 0.63665,-0.37418 1.05116,-0.85543 z m -12.87881,-5.07623 c 0.15339,-0.24817 0.63799,-3.11692 1.07691,-6.375 0.43891,-3.25807 1.13792,-6.45833 1.55336,-7.11167 0.94198,-1.48138 0.50997,-1.8145 -3.35012,-2.58328 -1.5125,-0.30123 -3.13684,-0.65766 -3.60963,-0.79207 -0.78105,-0.22204 -0.76754,-0.0362 0.14788,2.03326 1.68234,3.8032 0.2204,7.86247 -3.51863,9.76998 -1.11079,0.56668 -2.01886,1.30701 -2.01793,1.64517 10e-4,0.33816 1.74468,1.32411 3.875,2.191 4.12749,1.6796 5.39661,1.94516 5.84316,1.22261 z M 376.2303,271.875 c -0.45648,-4.7806 -0.6497,-4.94169 -2.24899,-1.875 -2.13511,4.09415 -1.95349,4.87212 1.15804,4.96053 1.38935,0.0394 1.38935,0.0394 1.09095,-3.08553 z m -41.76737,1.18637 c 2.02868,-0.56691 1.71521,-1.42183 -0.83151,-2.26772 -4.90294,-1.62849 -6.90374,-4.99939 -5.64207,-9.50563 0.93029,-3.32266 2.89956,-4.55581 7.13565,-4.4683 3.394,0.0701 3.69036,-0.049 2.96475,-1.19162 -0.42716,-0.67263 -4.46674,-1.71969 -6.74997,-1.74959 -2.04656,-0.0268 -5.40181,2.52181 -6.75126,5.12818 -1.9662,3.79756 -1.01027,9.6038 1.9616,11.91455 3.04197,2.36525 5.1078,2.92399 7.91281,2.14013 z m 3.97537,-7.27774 c 0.32594,-2.32997 0.45007,-4.8043 0.27583,-5.49853 -0.31738,-1.26453 -0.84494,-1.3554 -4.84648,-0.83484 -1.04626,0.13611 -2.36403,3.46124 -2.36578,5.9696 -0.002,2.8966 0.72093,3.9245 3.74813,5.32907 2.0467,0.94964 2.44835,0.32415 3.1883,-4.9653 z m 5.40995,4.05847 c 1.06164,-1.05072 1.90218,-5.1789 1.36531,-6.7055 -0.38249,-1.08759 -0.8025,-1.3866 -1.94777,-1.3866 -1.41603,0 -1.47865,0.10571 -2.07346,3.5 -0.97816,5.58186 -0.93656,5.91829 0.68267,5.5213 0.75625,-0.1854 1.64421,-0.60355 1.97325,-0.9292 z M 139.75,193.40847 c -2.475,-0.22513 -5.23889,-0.74664 -6.14197,-1.1589 -0.90308,-0.41227 -2.03432,-0.74957 -2.51387,-0.74957 -1.77122,0 -8.96403,-2.64362 -12.84416,-4.72069 -7.53237,-4.03217 -8.20659,-4.44297 -10.84749,-6.60928 C 105.94753,178.97651 104.55094,178 104.29898,178 c -0.56757,0 -5.301575,-3.54805 -6.9996,-5.24608 C 96.60972,172.06426 95.93785,171.5 95.80634,171.5 94.88139,171.5 86.5,162.08037 86.5,161.04085 86.5,160.74338 86.30413,160.5 86.064735,160.5 85.424905,160.5 80.594135,152.89569 78.46,148.52907 76.568655,144.65923 73.266095,135.13338 72.72946,132 71.954795,127.47676 71.603245,111.58464 72.154315,106 72.594185,101.5423 73.56909,96.516315 74.05176,96.21801 74.29829,96.065645 74.5,95.639615 74.5,95.271275 c 0,-0.8456 4.26369,-9.858915 5.923105,-12.521275 2.14736,-3.44521 3.813655,-5.99027 4.091985,-6.25 0.14735,-0.1375 1.13042,-1.440815 2.1846,-2.89626 3.29513,-4.549385 13.85412,-13.35892 21.23799,-17.719195 7.0788,-4.180125 19.5347,-8.809875 29.06232,-10.80221 5.36929,-1.122781 22.55995,-2.365765 26.29175,-1.901046 1.35203,0.168369 4.93325,0.432809 7.95825,0.587645 5.55621,0.284396 10.66508,1.451329 11.39984,2.603874 0.21992,0.344955 0.90617,0.627192 1.525,0.627192 0.61884,0 1.33891,0.18707 1.60016,0.415711 0.26125,0.228641 1.4875,0.697265 2.725,1.041387 1.96243,0.545712 4.42468,1.621442 11.41956,4.989097 3.70722,1.78482 16.37793,12.66794 15.81298,13.582065 -0.16878,0.273085 -0.12139,0.437435 0.10529,0.36522 0.22669,-0.07221 1.42467,0.953895 2.66217,2.28024 1.2375,1.326345 2.54732,2.729855 2.91071,3.11891 0.3634,0.389055 0.5046,0.70737 0.31378,0.70737 -0.19081,0 -0.0963,0.30195 0.20995,0.671005 0.30628,0.36905 0.40883,0.81905 0.22789,1 C 221.98138,75.35195 222.09583,75.5 222.41666,75.5 222.7375,75.5 223,75.919655 223,76.43257 c 0,0.512915 0.41297,1.469165 0.91772,2.125 0.50475,0.655835 1.23467,1.92368 1.62205,2.81743 0.38739,0.89375 0.8477,1.625 1.02293,1.625 0.35642,0 1.65635,4.50369 1.49733,5.18758 -0.056,0.24067 0.26034,0.83769 0.7029,1.32671 1.2562,1.38809 2.82884,9.12681 3.49085,17.17798 0.15567,1.89326 0.51058,3.86743 0.78867,4.38706 0.3206,0.59904 0.38251,3.6392 0.16918,8.30772 -0.30836,6.74821 -0.51875,7.96357 -2.51987,14.55669 -1.20088,3.95656 -2.4072,7.46339 -2.68072,7.79295 -0.67999,0.81934 -3.15421,5.33345 -5.07729,9.26331 -0.87471,1.7875 -2.31254,4.15 -3.19516,5.25 -0.88263,1.1 -1.69114,2.27016 -1.79669,2.60036 -0.20321,0.63573 -3.72182,4.69753 -8.6919,10.03375 -1.65,1.77156 -4.4625,4.37322 -6.25,5.78149 -1.7875,1.40826 -3.3625,2.71167 -3.5,2.89645 -0.4772,0.64129 -10.95778,6.28591 -13.34737,7.18861 -1.32145,0.4992 -2.51513,1.04077 -2.65263,1.20348 -1.06134,1.256 -14.43877,5.96552 -18.22032,6.41446 -2.17731,0.25849 -2.38748,0.2046 -1.77195,-0.45433 0.3841,-0.41118 0.93324,-0.76103 1.22031,-0.77745 1.84227,-0.10535 7.92777,-2.16464 14.67784,-4.96688 4.31427,-1.79103 8.23787,-3.37571 8.71912,-3.5215 0.48125,-0.14579 0.875,-0.46383 0.875,-0.70675 0,-0.24293 0.24162,-0.44169 0.53693,-0.44169 0.29531,0 2.93906,-1.61322 5.875,-3.58494 7.64397,-5.13353 19.11102,-16.96013 24.2814,-25.04274 3.89519,-6.08916 4.30567,-7.0391 8.91124,-20.62232 0.84773,-2.50021 1.09451,-5.08244 1.48132,-15.5 0.31792,-8.56225 0.29874,-13.16041 -0.0609,-14.59641 -0.28876,-1.15303 -0.52501,-2.64272 -0.52501,-3.310435 0,-0.667715 -0.65623,-3.4942 -1.45829,-6.28108 -2.32008,-8.06151 -7.15738,-17.03734 -11.72583,-21.757825 C 215.17963,69.6302 213.78784,68.1252 213.223,67.459805 210.01624,63.68215 200.10012,55.824235 195.25,53.21729 188.19001,49.422533 176.27062,46 170.11493,46 c -1.14119,0 -4.34124,-0.358956 -7.11123,-0.797679 -3.97584,-0.629712 -5.19083,-0.669463 -5.77002,-0.188778 -0.40353,0.334896 -0.73546,0.412601 -0.73764,0.172679 -0.002,-0.239922 -1.46468,-0.498437 -3.25,-0.574478 -1.78532,-0.07604 -3.24604,0.04771 -3.24604,0.275 0,0.950803 1.32951,1.613256 3.23773,1.613256 1.25517,0 3.18495,0.570028 5.025,1.484308 1.643,0.81637 3.34615,1.49137 3.78477,1.5 0.87697,0.01725 2.4525,1.539407 2.4525,2.369402 0,0.288735 0.675,0.804565 1.5,1.14629 0.825,0.341725 1.5,0.93715 1.5,1.32316 0,0.38601 0.66133,0.834105 1.46962,0.995765 1.45951,0.2919 4.37385,3.064635 8.94415,8.509545 1.95926,2.334195 2.55999,2.701385 6.35581,3.88486 3.91011,1.21911 4.34704,1.497285 6.49661,4.136105 1.26751,1.556 2.73341,3.669695 3.25755,4.697105 0.88044,1.725805 1.22112,1.929 4.47511,2.669105 C 201.8998,79.98917 207,82.903565 207,84.07343 c 0,1.268085 -4.59857,6.82727 -6.81521,8.23886 -2.03565,1.29634 -2.37305,2.0584 -2.23461,5.04711 0.0751,1.6221 -0.0845,2.6406 -0.41393,2.6406 -0.74706,0 -0.67399,1.36382 0.0888,1.65648 0.42029,0.16126 0.26239,0.50762 -0.48208,1.05747 -0.95295,0.70381 -1.02847,0.99018 -0.54249,2.0568 0.47792,1.04892 0.39841,1.41604 -0.51792,2.39142 -0.59538,0.63375 -1.07907,1.36278 -1.07486,1.62005 0.004,0.25728 0.22577,0.13028 0.49235,-0.28222 0.29647,-0.45876 0.48766,-0.51695 0.49234,-0.14984 0.004,0.33008 -0.28169,0.78008 -0.63533,1 -1.64162,1.02084 -2.87019,3.32158 -2.59122,4.85254 0.40195,2.20586 -0.56262,8.24405 -1.47864,9.25625 -0.52352,0.57848 -0.60941,1.01879 -0.26576,1.36244 0.60538,0.60538 -0.12648,7.91373 -1.29862,12.9679 -0.42453,1.83055 -0.66627,3.43388 -0.53719,3.56296 0.12909,0.12908 -0.0727,1.28388 -0.44852,2.56622 -0.37577,1.28234 -1.15079,4.09153 -1.72228,6.24265 -0.57149,2.15112 -1.37983,4.4312 -1.79632,5.06683 -0.41648,0.63564 -0.71161,1.35063 -0.65583,1.58888 0.19331,0.82572 -0.67344,3.18317 -1.17033,3.18317 -0.27461,0 -0.3653,0.34918 -0.20152,0.77597 0.17075,0.44496 0.0869,0.64566 -0.1965,0.47049 -0.27185,-0.16801 -0.49428,-0.082 -0.49428,0.1912 0,0.27317 -0.87231,1.8052 -1.93848,3.4045 -1.50483,2.25735 -1.84638,3.15101 -1.52681,3.99485 0.29401,0.77636 0.0465,1.84808 -0.86626,3.75 -0.70286,1.46464 -1.47969,2.73845 -1.7263,2.83069 -0.24661,0.0923 -0.33118,0.35733 -0.18795,0.5891 0.23283,0.37671 -0.69202,1.85401 -4.04241,6.45711 -1.40873,1.93546 -6.60188,6.11582 -6.81251,5.48391 -0.17999,-0.53995 -1.67856,0.10989 -3.90021,1.69127 -1.05073,0.74792 -1.12997,0.96504 -0.49907,1.36735 0.4125,0.26303 0.525,0.48885 0.25,0.5018 -0.275,0.0129 -0.1058,0.32279 0.376,0.68851 0.76634,0.58171 0.45339,0.71201 -2.5,1.04092 -4.98712,0.5554 -14.25033,0.63705 -19.376,0.1708 z m 34,-13.90847 c 0.16996,-0.275 0.0707,-0.5 -0.22049,-0.5 -0.29123,0 -0.52951,0.225 -0.52951,0.5 0,0.275 0.0992,0.5 0.22049,0.5 0.12127,0 0.35955,-0.225 0.52951,-0.5 z m 19.27371,-70.54647 c 1.34094,-2.62848 2.40176,-8.21059 2.27721,-11.982865 -0.0975,-2.952765 -0.0975,-2.952765 4.50827,-7.664505 4.60576,-4.71174 4.60576,-4.71174 3.50905,-5.74205 -1.345,-1.26356 -4.53208,-2.42538 -7.86673,-2.867735 -2.36349,-0.31353 -2.56928,-0.46202 -3.68117,-2.656225 -0.64775,-1.27827 -2.04769,-3.216485 -3.11098,-4.30714 C 186.78768,71.813165 181.83235,69 180.32225,69 c -1.7886,0 -4.14897,6.356865 -4.76636,12.8366 -0.0308,0.322635 -1.57464,1.59649 -3.43089,2.8308 C 167.80331,87.541085 162,94.00804 162,95.950245 c 0,1.020045 0.36541,1.567 1.375,2.05813 1.65544,0.80532 7.17418,0.97308 11.11789,0.337965 2.40215,-0.386855 3.08019,-0.321505 4.18673,0.403525 0.72621,0.47583 1.32038,1.073765 1.32038,1.328745 0,0.46682 0.51381,1.18185 2.125,2.95723 0.48125,0.53029 0.875,1.18187 0.875,1.44796 0,0.26609 1.2375,1.41812 2.75,2.56007 1.5125,1.14195 2.75,2.23081 2.75,2.41968 0,0.3072 2.18506,1.3477 3.11484,1.48326 0.20066,0.0293 0.83465,-0.86773 1.40887,-1.99328 z M 196.5,105.72049 c 0,-0.42873 -0.225,-0.64045 -0.5,-0.47049 -0.275,0.16996 -0.5,0.52074 -0.5,0.77951 0,0.25877 0.225,0.47049 0.5,0.47049 0.275,0 0.5,-0.35078 0.5,-0.77951 z m -17.54327,-5.801335 c -0.39501,-0.738095 -0.70269,-0.931275 -0.83778,-0.52601 -0.21954,0.658625 0.85028,2.304295 1.24281,1.911765 0.12059,-0.1206 -0.0617,-0.74418 -0.40503,-1.385755 z M 403.25,150.95198 c -9.56008,-0.81401 -19.91406,-3.95296 -25.75,-7.80646 -4.76252,-3.14471 -9.1819,-6.63669 -11.14187,-8.80375 C 360.65931,128.04081 351,114.87256 351,113.40452 c 0,-0.24905 -0.46734,-1.3982 -1.03852,-2.55367 -2.08833,-4.22454 -4.01872,-9.69092 -4.7147,-13.35085 -1.11255,-5.850435 -1.1824,-6.464645 -1.27948,-11.25 -0.14095,-6.94733 -0.1001,-7.25991 0.9077,-6.946555 0.74288,0.23098 0.75862,0.195915 0.10421,-0.23222 -0.72474,-0.47415 -0.78083,-1.046415 -0.49706,-5.071225 0.0735,-1.04192 0.14761,-1.099175 0.44543,-0.343955 0.23963,0.60769 0.73091,-0.750665 1.49189,-4.125 0.62402,-2.767075 1.31132,-5.031045 1.5273,-5.031045 0.21599,0 0.66535,-0.598355 0.99856,-1.32968 0.45688,-1.002745 0.46348,-1.417655 0.0269,-1.6875 -0.41845,-0.258615 -0.42555,-0.45264 -0.0256,-0.69983 0.30436,-0.188105 0.55338,-0.18868 0.55338,-0.0015 0,0.1874 0.3375,0.06063 0.75,-0.281715 0.4125,-0.342345 0.75,-1.018655 0.75,-1.502905 0,-0.48839 0.50096,-1.01775 1.125,-1.188765 0.94094,-0.257865 1.0023,-0.39011 0.375,-0.808315 -0.47181,-0.31455 -0.56407,-0.63911 -0.24874,-0.875015 0.2757,-0.20625 1.45918,-1.63618 2.62996,-3.177615 6.69581,-8.815614 20.40507,-17.229112 33.16443,-20.35331 8.95019,-2.191503 10.79741,-2.513076 14.70219,-2.559426 5.3225,-0.06318 15.14071,0.850135 18.50215,1.721113 5.95356,1.542618 20.53701,8.222279 23.82282,10.91157 0.72755,0.595467 2.52755,2.05571 4,3.244983 1.47245,1.189273 4.98194,4.43673 7.79886,7.21657 5.33884,5.268565 7.5376,8.688375 10.84352,16.865325 1.80501,4.464565 3.78363,12.72889 3.78427,15.80618 5e-4,2.853455 0.74423,5.49045 1.93618,6.865885 1.36501,1.57513 4.02332,2.390535 10.30723,3.161635 1.09609,0.1345 2.10859,0.41016 2.25,0.612575 0.14142,0.20242 1.73881,0.63487 3.54976,0.961005 C 493.0893,98.03999 496,99.25408 496,100.09471 c 0,0.28693 -0.39375,0.41257 -0.875,0.27919 -4.35149,-1.20603 -12.03204,-3.047755 -15.125,-3.62683 -0.6875,-0.12872 -1.8125,-0.45304 -2.5,-0.72072 -0.6875,-0.267675 -2.375,-0.70547 -3.75,-0.97288 -1.375,-0.267405 -3.2875,-0.71249 -4.25,-0.98907 -0.9625,-0.276585 -4.675,-1.30059 -8.25,-2.27557 -3.575,-0.97498 -9.86046,-2.788875 -13.9677,-4.030875 C 443.17506,86.51618 439.20006,85.5 438.44896,85.5 c -0.7511,0 -1.44063,-0.178335 -1.53229,-0.396295 C 436.565,84.26752 433.06888,82.5 431.76659,82.5 c -0.8827,0 -1.87818,0.548955 -2.81599,1.55288 -2.02623,2.16909 -2.02188,4.95277 0.0109,6.98558 0.80385,0.80385 1.8726,1.46435 2.375,1.46778 1.16026,0.0079 7.45351,6.096545 11.3922,11.02176 1.66169,2.0779 4.48376,6.06819 6.27126,8.86731 1.7875,2.79913 3.43203,5.09278 3.65451,5.09701 0.22248,0.004 0.23554,-0.27357 0.029,-0.61732 -0.22621,-0.37652 -0.0173,-0.3341 0.52532,0.10672 0.53892,0.43777 0.67791,0.80603 0.34598,0.91667 -0.30516,0.10172 -0.55483,0.38413 -0.55483,0.62758 0,0.24345 0.37441,0.29897 0.83202,0.12337 0.55945,-0.21468 0.71359,-0.12764 0.4705,0.26569 -0.20717,0.3352 -0.0761,0.58497 0.30685,0.58497 0.64009,0 2.39063,1.69019 2.39063,2.30821 0,0.16322 0.65769,1.27128 1.46154,2.46236 0.84611,1.25369 1.35783,2.56219 1.21524,3.10744 -0.13547,0.51802 0.11228,1.23944 0.55054,1.60317 1.01597,0.84317 1.61927,0.2889 0.78271,-0.7191 -0.34785,-0.41915 -0.51187,-0.76208 -0.36448,-0.76208 0.42569,0 8.85446,10.94867 8.85446,11.50163 0,0.2741 -0.65274,0.49837 -1.45053,0.49837 -1.15695,0 -1.99183,-0.62713 -4.125,-3.09856 -3.95483,-4.58193 -4.5596,-5.18867 -5.85221,-5.8712 -1.09329,-0.57728 -1.38522,-0.4118 -4.07148,2.30797 -6.2936,6.37211 -18.89287,13.34066 -28.68883,15.86755 -7.59402,1.95889 -15.71995,2.78623 -22.06195,2.24622 z m 33.6899,-39.00573 c 6.93696,-2.70448 7.01502,-2.77184 5.73117,-4.94522 -0.849,-1.43725 -1.67107,-1.96918 -1.67107,-1.08129 0,0.67231 -2.14035,1.46551 -6.23883,2.31208 -4.60892,0.952 -9.24843,0.36075 -12.04126,-1.53452 -0.97038,-0.65851 -1.92308,-1.1989 -2.11712,-1.20086 -0.49954,-0.005 -3.84005,-3.39069 -5.58243,-5.65787 C 412.95133,97.146375 411,90.814675 411,86.793285 c 0,-2.868565 0.26281,-3.76315 2.22686,-7.580075 4.08781,-7.944235 10.07317,-11.24767 17.5885,-9.70742 8.18322,1.67713 14.95427,7.86866 15.94214,14.57769 0.27603,1.874675 0.57029,2.390385 1.49659,2.62287 0.63416,0.15916 1.54605,0.44021 2.02643,0.62455 0.78828,0.30249 0.84641,0.0468 0.59628,-2.62287 -0.63238,-6.74961 -4.91525,-13.15899 -11.14091,-16.67254 -10.99465,-6.204995 -26.20416,-2.24803 -31.15469,8.10533 -5.70919,11.94 -3.49656,22.31093 6.585,30.86485 4.51047,3.82701 7.81774,5.45479 12.16456,5.98718 4.28914,0.52531 6.07655,0.33064 9.60914,-1.0466 z M 434.5,100.7048 c 0,-0.4049 0.3375,-0.865695 0.75,-1.023985 1.08681,-0.41705 0.92217,-1.350775 -0.44828,-2.54237 -0.82081,-0.713685 -1.36024,-0.87993 -1.71241,-0.52776 -0.67174,0.671745 -4.37345,0.08593 -6.40415,-1.013485 -4.26623,-2.30974 -6.33284,-8.228305 -4.44813,-12.73905 0.40537,-0.970185 1.58662,-2.464785 2.625,-3.32134 3.901,-3.2179 7.65711,-2.99097 11.56205,0.69854 1.97323,1.86437 2.19525,2.2684 1.62446,2.956165 -0.71324,0.859395 -0.62962,0.92656 1.82646,1.46722 1.27041,0.279655 1.34995,-0.07874 0.6093,-2.74536 -0.64317,-2.31567 -5.2875,-6.67278 -7.88019,-7.392855 -2.89147,-0.80305 -5.57025,-0.61728 -8.1933,0.568185 -1.90414,0.860565 -2.83662,1.745125 -4.44981,4.22115 -1.12248,1.722845 -2.38183,4.438135 -2.79856,6.033985 -0.66471,2.545425 -0.6687,3.08592 -0.0325,4.40385 0.39886,0.82627 1.0864,2.335045 1.52787,3.352835 0.44147,1.01779 1.43031,2.252195 2.19743,2.743125 0.76712,0.49093 1.61976,1.172895 1.89476,1.51548 0.62931,0.783965 6.0578,2.66641 6.47787,2.246335 0.17149,-0.171485 0.44161,0.18463 0.60028,0.791365 0.21037,0.80446 0.64501,1.08967 1.60517,1.05333 1.31668,-0.0498 1.31668,-0.0498 0.0667,-0.45016 -1.11939,-0.35849 -1.05572,-0.40553 0.60931,-0.45016 1.53905,-0.0413 1.80431,0.0935 1.54003,0.78218 -0.21468,0.55944 -0.12764,0.71358 0.26569,0.4705 0.32173,-0.19885 0.58497,-0.69282 0.58497,-1.09772 z m -8.23677,-27.608235 c -0.15395,-0.153945 -0.55739,-3.2e-4 -0.89657,0.34139 -0.49013,0.49381 -0.4327,0.55124 0.2799,0.2799 0.49311,-0.187765 0.77061,-0.467345 0.61667,-0.62129 z"
       id="path1614" />
  </g>
</svg>
