<?xml version="1.0" encoding="UTF-8" standalone="no"?>
<svg
   xmlns:dc="http://purl.org/dc/elements/1.1/"
   xmlns:cc="http://creativecommons.org/ns#"
   xmlns:rdf="http://www.w3.org/1999/02/22-rdf-syntax-ns#"
   xmlns:svg="http://www.w3.org/2000/svg"
   xmlns="http://www.w3.org/2000/svg"
   xmlns:sodipodi="http://sodipodi.sourceforge.net/DTD/sodipodi-0.dtd"
   xmlns:inkscape="http://www.inkscape.org/namespaces/inkscape"
   version="1.1"
   id="svg2327"
   width="183"
   height="152"
   viewBox="0 0 183 152"
   sodipodi:docname="logo_bottom_right.svg"
   inkscape:version="1.0.1 (3bc2e813f5, 2020-09-07)">
  <metadata
     id="metadata2333">
    <rdf:RDF>
      <cc:Work
         rdf:about="">
        <dc:format>image/svg+xml</dc:format>
        <dc:type
           rdf:resource="http://purl.org/dc/dcmitype/StillImage" />
        <dc:title></dc:title>
      </cc:Work>
    </rdf:RDF>
  </metadata>
  <defs
     id="defs2331" />
  <sodipodi:namedview
     pagecolor="#ffffff"
     bordercolor="#666666"
     borderopacity="1"
     objecttolerance="10"
     gridtolerance="10"
     guidetolerance="10"
     inkscape:pageopacity="0"
     inkscape:pageshadow="2"
     inkscape:window-width="1868"
     inkscape:window-height="1025"
     id="namedview2329"
     showgrid="false"
     inkscape:zoom="2.042236"
     inkscape:cx="147.22195"
     inkscape:cy="164.90761"
     inkscape:window-x="0"
     inkscape:window-y="27"
     inkscape:window-maximized="1"
     inkscape:current-layer="g2335" />
  <g
     inkscape:groupmode="layer"
     inkscape:label="Image"
     id="g2335">
    <path
       style="fill:#000000;stroke-width:0.5"
       d="M 83.25,134.51032 C 73.41494,133.40491 63.82477,130.45642 58.61501,126.93631 50.660595,121.56172 47.49602,118.6223 40.919654,110.5 38.652353,107.69971 32.5,98.7607 32.5,98.26673 32.5,98.11733 31.921473,96.81495 31.214386,95.37255 26.693422,86.150145 24.901971,78.6324 24.810762,68.5 c -0.08069,-8.963935 0.53261,-13.954405 2.280946,-18.560188 1.419557,-3.739657 5.057679,-9.305137 5.929536,-9.07081 0.243522,0.06545 0.322338,-0.194834 0.175145,-0.578413 -0.42103,-1.097187 6.843906,-8.87611 11.959635,-12.805764 C 50.67281,23.247098 60.071905,18.338913 65.67357,16.770615 75.57411,13.998762 77.330445,13.75 87,13.75 c 10.87713,0 14.03563,0.57952 23.25,4.265896 12.0699,4.828783 18.01016,8.797996 27.78687,18.566855 4.88246,4.878538 5.55907,5.79189 7.9439,10.723362 1.43378,2.964837 3.03006,6.527597 3.54729,7.917247 1.3908,3.736675 2.89885,10.577385 3.1473,14.27664 0.33276,4.954285 1.23526,6.64754 3.84017,7.204855 2.00597,0.42917 9.57197,2.303035 11.73447,2.906265 1.1,0.306845 2.48755,0.57612 3.08344,0.59839 0.5959,0.02225 1.25215,0.20924 1.45833,0.41549 0.20619,0.20625 0.89989,0.375 1.54156,0.375 0.64167,0 1.16667,0.25124 1.16667,0.558315 0,0.307075 0.43459,0.44467 0.96575,0.305765 0.79321,-0.207425 0.94374,-0.01685 0.84249,1.066685 -0.0799,0.85532 -0.37559,1.258935 -0.84076,1.147755 -1.42788,-0.34127 -10.31959,-2.516805 -14.71748,-3.600925 -2.475,-0.61011 -5.625,-1.33203 -7,-1.60427 -1.375,-0.27224 -2.95,-0.66143 -3.5,-0.86487 -1.30271,-0.48186 -3.3984,-1.08759 -9.5,-2.74585 -2.75,-0.74738 -6.71737,-1.893585 -8.81637,-2.54713 C 127.06419,70.88798 119.53271,69 118.11193,69 c -0.70323,0 -1.12793,-0.150665 -0.94379,-0.334805 0.18414,-0.184145 -0.57093,-0.87492 -1.67794,-1.53506 -1.78095,-1.06203 -2.21397,-1.13384 -3.76016,-0.623545 -1.87084,0.61743 -3.23004,2.574635 -3.23004,4.65115 0,1.628635 1.7972,3.80855 3.84547,4.664375 1.85987,0.777105 2.37746,1.165655 5.69873,4.278 C 121.61025,83.441855 131,95.963965 131,97.3779 c 0,0.30509 0.42272,0.68888 0.93938,0.85286 1.06102,0.336755 5.61234,5.40338 6.18539,6.8857 0.53772,1.39091 2.99211,4.79084 8.00023,11.08228 2.40625,3.02284 4.375,5.78974 4.375,6.14867 0,0.90153 -3.33602,0.85461 -3.85016,-0.0541 -0.71138,-1.2574 -6.87244,-7.87576 -7.78878,-8.3669 -0.72262,-0.38732 -1.34758,0.0254 -3.34046,2.20592 -2.57994,2.82285 -12.3684,9.73711 -15.7706,11.13985 -1.1,0.45353 -3.45888,1.49492 -5.24195,2.31421 -4.45121,2.04526 -13.65121,4.26705 -20.25805,4.89231 -5.85361,0.55398 -6.340515,0.55538 -11,0.0317 z m 59.01552,-22.48521 c -0.18404,-0.29778 -0.5681,-0.39713 -0.85345,-0.22077 -0.33594,0.20763 -0.2848,0.4653 0.14507,0.73097 0.80238,0.4959 1.16761,0.23285 0.70838,-0.5102 z M 119.82323,94.519985 c 1.69027,-0.59225 3.42947,-1.470465 3.86488,-1.951595 0.69894,-0.772315 0.70612,-0.99689 0.0614,-1.917435 l -0.73031,-1.04266 -4.13457,1.439165 c -2.27402,0.79154 -5.15606,1.44217 -6.40453,1.44585 -2.65573,0.0079 -7.74965,-1.229855 -9.33746,-2.26874 C 102.53351,89.826055 101.84252,89.5 101.60704,89.5 100.84489,89.5 96.5,85.040645 96.5,84.25841 96.5,83.841285 96.28078,83.5 96.01284,83.5 c -1.433385,0 -4.1599,-8.585105 -4.1599,-13.098465 0,-2.92965 0.26277,-3.943365 1.859805,-7.17474 4.69158,-9.492765 12.129665,-12.79053 21.438965,-9.505215 6.73534,2.37694 11.90613,7.91299 12.68269,13.578575 0.21617,1.577145 0.58676,2.231225 1.49988,2.64727 1.84628,0.84122 2.66572,0.67506 2.66572,-0.54053 0,-1.61281 -1.98691,-8.409105 -2.88914,-9.8824 -1.27375,-2.07997 -6.45584,-6.78132 -8.99758,-8.16288 -4.88804,-2.656885 -13.95711,-3.510495 -17.66175,-1.662379 -0.88284,0.440419 -2.07685,0.804159 -2.65335,0.808309 -0.5765,0.004 -2.55796,1.121415 -4.40325,2.48281 -3.952305,2.91589 -5.800135,5.785565 -7.709025,11.972105 -1.13842,3.689535 -1.256375,4.70998 -0.950165,8.2203 0.192285,2.204315 0.780145,5.14621 1.30635,6.537545 1.72043,4.548945 6.155565,9.45635 12.72115,14.075745 2.02241,1.42292 4.61884,2.220335 8.62264,2.64817 3.46464,0.37022 4.3602,0.205115 10.43735,-1.924235 z M 116.172,82.87096 c 0.87627,-0.43381 0.86603,-0.516025 -0.20629,-1.65746 -0.81208,-0.86442 -1.30171,-1.05709 -1.74706,-0.68748 -0.68339,0.56716 -4.48326,-0.1784 -6.78409,-1.331085 -4.64363,-2.326385 -6.43188,-9.638135 -3.49127,-14.27499 3.4777,-5.48377 10.35273,-5.7279 14.48202,-0.514245 1.11769,1.4112 1.38371,2.08528 0.98161,2.487375 -0.40209,0.402095 -0.18691,0.643095 0.79404,0.889295 1.70741,0.428535 1.87736,0.234235 1.48985,-1.703295 -0.43538,-2.17689 -3.57806,-5.5958 -6.47243,-7.041315 -5.61213,-2.80283 -10.80279,-1.418225 -14.17706,3.781725 -1.045895,1.611785 -2.272265,4.208515 -2.725265,5.77051 -0.798275,2.75255 -0.79151,2.89445 0.219835,4.608545 0.573905,0.9727 0.90838,1.987125 0.743275,2.254275 -0.16511,0.26715 0.06219,0.68853 0.50512,0.9364 0.442915,0.247875 0.776235,0.655455 0.740705,0.90573 -0.0356,0.25028 0.37797,0.524815 0.91889,0.61007 0.54092,0.08526 1.25666,0.48416 1.59053,0.88645 0.50357,0.60677 0.44585,0.680435 -0.33869,0.43223 -0.85082,-0.269175 -0.84538,-0.23634 0.0543,0.327255 0.55,0.344555 1.24255,0.952165 1.539,1.350255 0.35935,0.482575 1.47952,0.723795 3.36114,0.723795 2.35642,0 2.87309,0.16049 3.13081,0.9725 0.24975,0.78691 0.70564,0.94935 2.38885,0.851205 1.14411,-0.06671 2.4951,-0.326695 3.0022,-0.577745 z M 112,82.6064 c 0,-0.216475 0.45,-0.427495 1,-0.468925 0.55,-0.04145 1,0.13569 1,0.3936 C 114,82.788985 113.55,83 113,83 c -0.55,0 -1,-0.17712 -1,-0.3936 z M 27.43303,52.550305 c 0.268305,-1.19414 0.307925,-1.97522 0.08804,-1.735735 -0.440534,0.479815 -1.272459,4.595855 -0.843065,4.17116 0.146956,-0.145345 0.486716,-1.24129 0.755021,-2.435425 z m 2.788591,-6.99535 c -0.355095,-0.355095 -1.729343,1.390422 -1.704987,2.16561 0.0092,0.291189 0.464775,-0.0087 1.012502,-0.666396 0.547727,-0.657708 0.859346,-1.332354 0.692485,-1.499214 z"
       id="path2900" />
  </g>
</svg>
